<?xml version="1.0" standalone="no"?>
<svg xmlns="http://www.w3.org/2000/svg" viewBox="0 0 145.152 29" width="145.152" height="29"><g fill="#ece90e" color="#ece90e" transform="translate(0, 0) scale(0.29)"><svg width="100.0" height="100.0" x="0.0" y="0.0" viewBox="0 0 100 100"><polygon style="" points="100,0 25,50 43.75,62.5 0,100 75,62.5 56.25,50 " fill="currentColor"></polygon></svg></g><line x1="41" y1="1" x2="41" y2="28" stroke="#6a8bff" stroke-linecap="round"></line><path fill="#6a8bff" fill-rule="nonzero" d="M11.30 18.82L8.40 19.10L3.14 7.85L3.14 18.82L0 18.96L0 1.10L3.67 0.96L8.33 11.66L8.33 1.25L11.30 0.96L11.30 18.82ZM16.66 19.27Q15.79 19.27 15.10 18.73Q14.40 18.19 14.02 17.27Q13.63 16.34 13.63 15.19L13.63 15.19Q13.63 12.58 15.42 11.51Q17.21 10.44 19.58 10.30L19.58 10.30Q19.58 9 19.42 8.38Q19.25 7.75 18.60 7.75L18.60 7.75Q18.05 7.75 17.76 8.18Q17.47 8.62 17.40 9.29L17.40 9.29L14.11 8.71Q14.35 6.86 15.62 6.07Q16.90 5.28 18.60 5.28L18.60 5.28Q20.78 5.28 21.88 6.43Q22.97 7.58 22.97 9.43L22.97 9.43L22.97 16.42Q22.97 17.54 23.33 18.82L23.33 18.82L20.04 19.10L19.66 17.45Q19.22 18.22 18.38 18.74Q17.54 19.27 16.66 19.27L16.66 19.27ZM18.22 16.87Q18.62 16.87 18.90 16.68Q19.18 16.49 19.58 16.06L19.58 16.06L19.58 12.31Q18.38 12.31 17.66 12.96Q16.94 13.61 16.94 14.98L16.94 14.98Q16.94 15.89 17.27 16.38Q17.59 16.87 18.22 16.87L18.22 16.87ZM30.14 19.27Q27.72 19.27 26.41 17.35Q25.10 15.43 25.10 12.24L25.10 12.24Q25.10 9.07 26.40 7.18Q27.70 5.28 30.14 5.28L30.14 5.28Q32.57 5.28 33.90 7.18Q35.23 9.07 35.23 12.24L35.23 12.24Q35.23 15.41 33.90 17.34Q32.57 19.27 30.14 19.27L30.14 19.27ZM30.14 16.78Q31.22 16.78 31.54 15.46Q31.85 14.14 31.85 12.22L31.85 12.22Q31.85 10.30 31.54 8.98Q31.22 7.66 30.14 7.66L30.14 7.66Q29.06 7.66 28.78 8.90Q28.49 10.15 28.49 11.95L28.49 11.95Q28.49 14.16 28.78 15.47Q29.06 16.78 30.14 16.78L30.14 16.78ZM41.54 19.27Q39.55 19.27 38.33 18.37Q37.10 17.47 36.74 15.86L36.74 15.86L39.36 15Q39.46 15.46 39.72 15.82L39.72 15.82Q40.27 16.61 41.33 16.61L41.33 16.61Q41.93 16.61 42.48 16.34Q43.03 16.08 43.03 15.53L43.03 15.53Q43.03 14.78 42 14.38L42 14.38L39.17 13.22Q38.04 12.74 37.44 11.78Q36.84 10.82 36.84 9.43L36.84 9.43Q36.84 8.14 37.48 7.20Q38.11 6.26 39.16 5.77Q40.20 5.28 41.40 5.28L41.40 5.28Q42.91 5.28 44.18 6.16Q45.46 7.03 45.89 8.54L45.89 8.54L43.10 9.41Q43.01 9 42.77 8.59L42.77 8.59Q42.24 7.78 41.42 7.78L41.42 7.78Q40.82 7.78 40.39 8.05Q39.96 8.33 39.96 8.86L39.96 8.86Q39.96 9.48 41.14 10.01L41.14 10.01L43.54 10.99Q44.81 11.59 45.53 12.50Q46.25 13.42 46.25 14.95L46.25 14.95Q46.25 16.34 45.58 17.32Q44.90 18.29 43.82 18.78Q42.74 19.27 41.54 19.27L41.54 19.27ZM48.34 19.10L48.34 1.39L51.70 0.96L51.70 7.18Q53.76 5.28 55.56 5.28L55.56 5.28Q56.83 5.28 57.64 6.20Q58.44 7.13 58.44 8.69L58.44 8.69L58.44 18.82L55.08 19.10L55.08 9.91Q55.08 9.02 54.76 8.59Q54.43 8.16 53.90 8.16L53.90 8.16Q53.47 8.16 52.99 8.38Q52.51 8.59 51.70 9.07L51.70 9.07L51.70 18.82L48.34 19.10ZM64.66 3.58L61.30 3.72L61.30 0.24L64.66 0L64.66 3.58ZM64.63 18.82L61.27 19.10L61.27 5.74L64.63 5.45L64.63 18.82ZM67.58 19.10L67.58 5.74L70.87 5.45L70.87 7.18Q71.62 6.31 72.59 5.80Q73.56 5.28 74.52 5.28L74.52 5.28Q76.03 5.28 76.51 7.39L76.51 7.39Q78.10 5.28 80.06 5.28L80.06 5.28Q81.36 5.28 81.91 6.31Q82.46 7.34 82.46 9.38L82.46 9.38L82.46 18.82L79.15 19.10L79.15 9.55Q79.15 8.90 78.91 8.53Q78.67 8.16 78.36 8.16L78.36 8.16Q77.86 8.16 77.41 8.44Q76.97 8.71 76.66 9.12L76.66 9.12L76.66 18.82L73.37 19.10L73.37 9.53Q73.37 8.86 73.16 8.51Q72.96 8.16 72.70 8.16L72.70 8.16Q72.22 8.16 71.71 8.45Q71.21 8.74 70.87 9.12L70.87 9.12L70.87 18.82L67.58 19.10ZM87.48 19.27Q86.62 19.27 85.92 18.73Q85.22 18.19 84.84 17.27Q84.46 16.34 84.46 15.19L84.46 15.19Q84.46 12.58 86.24 11.51Q88.03 10.44 90.41 10.30L90.41 10.30Q90.41 9 90.24 8.38Q90.07 7.75 89.42 7.75L89.42 7.75Q88.87 7.75 88.58 8.18Q88.30 8.62 88.22 9.29L88.22 9.29L84.94 8.71Q85.18 6.86 86.45 6.07Q87.72 5.28 89.42 5.28L89.42 5.28Q91.61 5.28 92.70 6.43Q93.79 7.58 93.79 9.43L93.79 9.43L93.79 16.42Q93.79 17.54 94.15 18.82L94.15 18.82L90.86 19.10L90.48 17.45Q90.05 18.22 89.21 18.74Q88.37 19.27 87.48 19.27L87.48 19.27ZM89.04 16.87Q89.45 16.87 89.72 16.68Q90 16.49 90.41 16.06L90.41 16.06L90.41 12.31Q89.21 12.31 88.49 12.96Q87.77 13.61 87.77 14.98L87.77 14.98Q87.77 15.89 88.09 16.38Q88.42 16.87 89.04 16.87L89.04 16.87Z" transform="translate(51, 4.864)"></path></svg>